<?xml version="1.0" encoding="UTF-8" standalone="no"?>
<svg
   version="1.0"
   width="682pt"
   height="607pt"
   viewBox="0 0 682 607"
   preserveAspectRatio="xMidYMid"
   id="svg44"
   sodipodi:docname="logo_tahara_inc.svg"
   inkscape:version="1.4 (e7c3feb100, 2024-10-09)"
   xmlns:inkscape="http://www.inkscape.org/namespaces/inkscape"
   xmlns:sodipodi="http://sodipodi.sourceforge.net/DTD/sodipodi-0.dtd"
   xmlns="http://www.w3.org/2000/svg"
   xmlns:svg="http://www.w3.org/2000/svg">
  <defs
     id="defs44" />
  <sodipodi:namedview
     id="namedview44"
     pagecolor="#ffffff"
     bordercolor="#000000"
     borderopacity="0.25"
     inkscape:showpageshadow="2"
     inkscape:pageopacity="0.0"
     inkscape:pagecheckerboard="0"
     inkscape:deskcolor="#d1d1d1"
     inkscape:document-units="pt"
     inkscape:zoom="0.67236328"
     inkscape:cx="510.14089"
     inkscape:cy="632.09877"
     inkscape:window-width="1900"
     inkscape:window-height="1152"
     inkscape:window-x="0"
     inkscape:window-y="0"
     inkscape:window-maximized="1"
     inkscape:current-layer="g44" />
  <g
     transform="matrix(0.1,0,0,-0.1,0,1024)"
     fill="#000000"
     stroke="none"
     id="g44">
    <path
       d="m 3348.0381,10219.106 c -37,-29 -37,-89 0,-118 37,-29 70,-26 105,8 31,32 35,50 17,84 -26,50 -77,61 -122,26 z"
       id="path1" />
    <path
       d="m 2915.0381,9873.1066 c -7,-2 -13,-12 -13,-21 0,-38 258,-940 281,-983 5,-10 16,-19 24,-19 29,0 32,-13 -172,755 -25,94 -50,188 -56,210 -15,60 -29,73 -64,58 z"
       id="path2" />
    <path
       d="m 3367.0381,9867.1066 c -3,-6 -4,-201 -3,-432 l 3,-420 h 30 30 l 3,419 c 1,301 -1,423 -9,432 -14,17 -48,18 -54,1 z"
       id="path3" />
    <path
       d="m 3807.0381,9870.1066 c -7,-11 -200,-786 -230,-923 -18,-80 -13,-106 17,-94 14,5 113,356 222,787 57,220 58,240 15,240 -10,0 -21,-5 -24,-10 z"
       id="path4" />
    <path
       d="m 2564.0381,9718.1066 c -7,-7 -12,-19 -12,-28 0,-9 86,-169 191,-356 105,-186 209,-374 230,-416 38,-76 50,-87 78,-69 17,11 -66,187 -228,481 -229,416 -230,417 -259,388 z"
       id="path5" />
    <path
       d="m 4182.0381,9714.1066 c -39,-46 -460,-879 -460,-909 0,-8 9,-15 19,-15 14,0 34,25 70,90 28,49 51,91 51,94 0,2 19,39 43,82 24,44 63,115 87,159 211,391 250,466 250,478 0,16 -20,37 -36,37 -6,0 -17,-7 -24,-16 z"
       id="path6" />
    <path
       d="m 2187.0381,9456.1066 c -24,-18 -14,-41 47,-106 309,-331 656,-690 669,-690 3,0 12,6 18,14 13,16 7,24 -123,171 -133,151 -569,614 -582,619 -7,3 -20,-1 -29,-8 z"
       id="path7" />
    <path
       d="m 4550.0381,9457.1066 c -9,-7 -66,-68 -129,-137 -62,-69 -167,-183 -234,-255 -196,-210 -325,-364 -319,-380 4,-8 13,-15 21,-15 18,0 257,240 462,465 218,239 251,277 251,297 0,25 -33,41 -52,25 z"
       id="path8" />
    <path
       d="m 4732.0381,9075.1066 c -63,-41 -179,-117 -258,-167 -480,-311 -510,-333 -498,-363 3,-9 12,-15 20,-12 16,6 395,239 561,344 250,159 345,224 345,236 0,18 -21,37 -39,37 -9,0 -68,-34 -131,-75 z"
       id="path9" />
    <path
       d="m 1868.0381,9125.1066 c -6,-17 17,-31 34,-20 5,3 10,13 10,21 0,19 -36,18 -44,-1 z"
       id="path10" />
    <path
       d="m 2107.0381,8990.1066 c -3,-11 -3,-25 1,-31 15,-25 583,-377 677,-420 24,-11 30,-11 37,1 5,9 4,20 -2,28 -26,31 -669,442 -691,442 -9,0 -18,-9 -22,-20 z"
       id="path11" />
    <path
       d="m 3382.0381,8921.1066 c 0,-12 6,-21 16,-21 9,0 14,7 12,17 -5,25 -28,28 -28,4 z"
       id="path12" />
    <path
       d="m 3049.0381,8816.1066 c -6,-15 1,-26 15,-26 4,0 8,9 8,20 0,23 -15,27 -23,6 z"
       id="path13" />
    <path
       d="m 1704.0381,8748.1066 c -21,-21 -13,-45 21,-61 37,-17 234,-82 382,-125 55,-17 149,-45 209,-62 104,-31 110,-32 122,-15 10,13 11,22 3,32 -9,10 -698,243 -720,243 -3,0 -10,-5 -17,-12 z"
       id="path14" />
    <path
       d="m 4952.0381,8733.1066 c -36,-13 -141,-51 -235,-83 -598,-206 -687,-240 -683,-259 2,-9 8,-15 13,-14 6,2 42,10 80,18 131,30 916,285 942,307 8,6 13,21 11,32 -4,30 -49,30 -128,-1 z"
       id="path15" />
    <path
       d="m 3297.0381,8629.1066 c -57,-16 -139,-74 -177,-124 -47,-61 -58,-97 -65,-200 -6,-103 18,-172 87,-248 69,-76 149,-111 250,-111 146,0 261,69 322,191 30,61 33,76 33,153 0,72 -5,94 -29,148 -36,79 -114,152 -191,181 -59,22 -172,27 -230,10 z"
       id="path16" />
    <path
       d="m 2649.0381,8433.1066 c -17,-16 -3,-31 41,-45 26,-9 50,-14 55,-11 19,11 3,32 -36,47 -48,18 -51,19 -60,9 z"
       id="path17" />
    <path
       d="m 1646.0381,8296.1066 c -8,-33 1,-44 39,-50 18,-3 217,-14 442,-26 226,-11 451,-22 501,-25 74,-5 93,-3 103,9 28,33 20,35 -279,61 -144,13 -744,55 -787,55 -7,0 -15,-11 -19,-24 z"
       id="path18" />
    <path
       d="m 4877.0381,8304.1066 c -455,-32 -798,-65 -812,-78 -7,-7 -9,-16 -4,-25 7,-11 43,-12 217,-3 525,28 801,43 821,48 12,2 27,13 33,23 13,26 -12,52 -48,50 -15,-1 -108,-8 -207,-15 z"
       id="path19" />
    <path
       d="m 1313.0381,8293.1066 c -12,-10 -24,-35 -27,-55 -5,-30 -2,-41 19,-62 51,-51 137,-19 137,50 0,68 -78,108 -129,67 z"
       id="path20" />
    <path
       d="m 5361.0381,8281.1066 c -33,-33 -35,-50 -14,-90 26,-51 82,-56 127,-11 35,36 33,71 -8,108 -34,30 -70,28 -105,-7 z"
       id="path21" />
    <path
       d="m 2712.0381,8041.1066 c -37,-10 -33,-37 5,-33 35,4 50,16 41,31 -8,12 -10,12 -46,2 z"
       id="path22" />
    <path
       d="m 4027.0381,8040.1066 c -4,-7 -3,-15 1,-20 16,-15 179,-51 689,-150 171,-33 319,-63 331,-66 20,-5 54,17 54,36 0,21 -33,37 -101,49 -41,7 -157,28 -259,46 -173,32 -557,95 -662,110 -30,4 -49,2 -53,-5 z"
       id="path23" />
    <path
       d="m 2487.0381,8014.1066 c -38,-7 -223,-41 -410,-74 -407,-72 -381,-66 -389,-85 -10,-26 5,-45 36,-45 16,0 123,18 236,40 114,23 299,59 412,81 242,47 255,51 240,79 -12,23 -26,23 -125,4 z"
       id="path24" />
    <path
       d="m 2647.0381,7826.1066 c -82,-35 -242,-105 -355,-156 -113,-51 -226,-102 -252,-113 -27,-12 -51,-29 -54,-39 -6,-20 11,-48 28,-48 6,0 121,52 257,115 501,235 604,292 541,302 -8,1 -82,-26 -165,-61 z"
       id="path25" />
    <path
       d="m 3962.0381,7871.1066 c 0,-20 26,-34 285,-153 72,-33 204,-96 295,-140 230,-112 229,-111 246,-97 41,34 1,62 -253,178 -106,48 -555,231 -567,231 -3,0 -6,-9 -6,-19 z"
       id="path26" />
    <path
       d="m 3231.0381,7672.1066 c -91,-75 -318,-268 -505,-427 -186,-160 -353,-301 -371,-314 l -32,-24 -88,56 c -187,117 -311,187 -329,187 -10,0 -77,-44 -149,-98 -71,-54 -224,-169 -338,-255 -232,-175 -403,-291 -582,-393 -167,-95 -466,-229 -635,-285 -53,-17 51,-18 3200,-18 h 3255 l -120,43 c -144,51 -230,89 -390,168 -288,144 -476,265 -902,585 -219,165 -346,253 -364,253 -12,0 -157,-85 -321,-188 l -87,-54 -88,68 c -122,95 -248,203 -530,452 -270,238 -440,382 -451,382 -4,0 -81,-62 -173,-138 z m 507,-454 c 181,-183 415,-423 519,-533 104,-110 245,-258 314,-329 69,-70 116,-123 104,-117 -12,6 -54,23 -95,37 -168,61 -373,181 -548,321 -145,116 -384,365 -595,620 l -20,24 3,-211 c 4,-247 -7,-318 -70,-445 -36,-73 -158,-260 -158,-242 0,4 11,35 25,70 25,61 85,269 85,295 0,7 -25,-5 -57,-28 -119,-86 -261,-178 -362,-235 -164,-91 -321,-173 -321,-167 0,2 15,24 34,47 19,23 50,62 69,86 18,24 74,96 123,159 79,101 184,247 209,290 9,15 -45,-22 -180,-125 -193,-146 -455,-322 -625,-419 -36,-20 -76,-44 -90,-54 -14,-9 268,277 626,636 359,358 658,652 665,652 8,0 163,-150 345,-332 z m -1778,-285 c 85,-54 272,-187 272,-193 0,-3 -29,-30 -65,-59 l -65,-53 -71,47 c -38,26 -76,44 -84,42 -7,-3 -80,-48 -162,-99 -81,-52 -193,-119 -248,-150 -155,-86 -332,-178 -341,-178 -9,0 208,208 360,346 160,143 360,314 369,314 4,0 20,-8 35,-17 z m 2975,-43 c 94,-80 442,-428 435,-435 -7,-8 -277,125 -368,181 -36,22 -86,52 -111,66 l -46,27 -77,-50 c -42,-27 -79,-49 -82,-49 -9,0 -134,104 -134,112 0,10 301,209 311,206 4,-2 37,-28 72,-58 z"
       id="path27" />
    <path
       d="m 2755.0381,7610.1066 c -87,-65 -221,-170 -298,-232 -112,-91 -140,-119 -140,-138 0,-59 36,-38 282,164 300,246 358,299 349,314 -4,7 -13,12 -21,12 -7,0 -85,-54 -172,-120 z"
       id="path28" />
    <path
       d="m 3852.0381,7712.1066 c 0,-31 158,-166 176,-151 24,20 15,32 -66,97 -94,74 -110,82 -110,54 z"
       id="path29" />
    <path
       d="m 4099.0381,7533.1066 c -16,-16 -4,-44 32,-72 46,-36 57,-38 71,-10 12,21 12,21 -59,76 -18,14 -34,16 -44,6 z"
       id="path30" />
    <path
       d="m 4278.0381,7402.1066 c -9,-10 -16,-24 -16,-30 0,-11 178,-162 190,-162 3,0 14,6 24,13 35,26 24,38 -159,179 -21,17 -23,17 -39,0 z"
       id="path31" />
    <path
       d="m 4752.0381,5853.1066 c -107,-2 -157,-7 -162,-16 -4,-6 -8,-240 -8,-519 0,-456 2,-508 16,-523 14,-14 31,-15 108,-9 50,3 95,10 99,14 5,4 8,82 8,174 l -2,166 h 60 59 l 133,-167 c 73,-93 139,-174 148,-180 10,-9 53,-13 132,-13 122,0 149,4 149,24 0,6 -39,56 -86,111 -74,86 -187,223 -217,262 -7,10 1,17 27,28 21,9 57,35 80,59 135,135 108,405 -53,521 -88,65 -170,76 -491,68 z m 319,-236 c 67,-40 92,-133 54,-199 -31,-52 -78,-68 -197,-68 h -105 l -3,145 -3,144 40,4 c 82,7 179,-5 214,-26 z"
       id="path32" />
    <path
       d="m 6.0380923,5837.1066 c -3,-8 -4.0000003,-54 -2,-103 l 3,-89 130.0000077,-5 130,-5 3,-414 c 1,-286 6,-418 13,-428 15,-18 168,-18 193,0 16,11 17,35 16,252 0,132 2,320 6,417 l 7,177 126,3 125,3 6,30 c 3,17 3,62 0,100 l -5,70 -373,3 c -304.000006,2 -373.000006,0 -378.0000077,-11 z"
       id="path33" />
    <path
       d="m 1285.0381,5838.1066 c -6,-7 -21,-44 -33,-83 -21,-65 -125,-348 -276.00001,-753 -36,-96 -64,-184 -62,-195 3,-21 8,-22 118.00001,-22 h 115 l 39,103 40,102 h 183 184 l 10,-27 c 5,-16 24,-62 42,-103 l 32,-75 95,-3 c 117,-4 140,1 140,30 0,12 -41,125 -91,252 -50,126 -130,336 -179,466 -48,129 -96,254 -105,278 l -17,42 h -113 c -78,0 -116,-4 -122,-12 z m 180,-505 c 30,-78 52,-145 49,-148 -3,-3 -52,-5 -109,-5 -80,0 -103,3 -103,14 0,7 18,62 40,122 54,144 62,165 65,162 2,-2 28,-67 58,-145 z"
       id="path34" />
    <path
       d="m 2208.0381,5834.1066 c -3,-9 -6,-242 -6,-519 0,-458 2,-505 17,-520 14,-14 32,-16 105,-13 52,2 93,9 101,17 8,8 13,71 15,221 l 3,210 h 140 139 l 1,-127 c 1,-187 8,-296 20,-308 12,-12 199,-9 211,3 5,5 7,242 6,528 l -3,519 -104,3 c -66,2 -108,-1 -115,-8 -7,-7 -11,-78 -11,-203 v -192 l -142,-3 -143,-3 v 194 c 0,137 -3,196 -12,205 -8,8 -48,12 -114,12 -84,0 -103,-3 -108,-16 z"
       id="path35" />
    <path
       d="m 3685.0381,5838.1066 c -4,-7 -24,-58 -44,-113 -21,-55 -55,-149 -77,-210 -22,-60 -77,-207 -122,-325 -131,-344 -143,-378 -137,-395 8,-20 218,-22 236,-2 6,8 22,42 35,78 13,35 30,76 37,92 l 12,27 h 184 184 l 15,-37 c 9,-21 29,-69 46,-106 l 31,-68 116,3 c 110,3 116,4 119,25 2,12 -20,77 -48,145 -46,111 -219,550 -315,801 l -37,97 h -113 c -80,0 -116,-4 -122,-12 z m 227,-644 c 0,-11 -19,-14 -92,-14 -51,0 -99,4 -107,9 -13,9 -3,41 85,281 6,15 114,-248 114,-276 z"
       id="path36" />
    <path
       d="m 6197.0381,5841.1066 c -3,-6 -30,-76 -59,-158 -125,-342 -210,-569 -299,-803 -36,-95 -31,-100 97,-100 73,0 107,4 114,13 6,7 27,53 45,103 l 34,89 186,3 185,2 13,-37 c 6,-21 25,-69 42,-106 l 30,-68 110,3 c 85,2 112,6 119,18 7,11 -14,76 -77,235 -48,121 -137,354 -198,518 l -111,297 h -112 c -62,0 -115,-4 -119,-9 z m 173,-499 c 28,-75 52,-143 52,-150 0,-10 -23,-13 -97,-11 -54,1 -103,4 -110,6 -8,3 -4,23 12,66 13,34 37,99 52,145 15,45 30,82 33,82 3,0 29,-62 58,-138 z"
       id="path37" />
    <path
       d="m 3731.0381,4471.1066 c -67,-21 -108,-77 -109,-149 -1,-126 151,-192 254,-111 32,25 32,32 1,53 -24,16 -27,15 -65,-6 -37,-21 -42,-22 -67,-8 -72,40 -63,137 14,156 17,5 33,0 53,-15 35,-26 39,-26 69,-1 20,17 22,22 10,37 -18,21 -88,53 -114,52 -11,0 -32,-4 -46,-8 z"
       id="path38" />
    <path
       d="m 3006.0381,4457.1066 c -2,-7 -3,-71 -2,-143 l 3,-129 33,-3 32,-3 v 145 146 h -30 c -17,0 -33,-6 -36,-13 z"
       id="path39" />
    <path
       d="m 3204.0381,4328.1066 3,-143 32,-3 32,-3 3,83 3,83 65,-82 c 58,-74 69,-83 97,-83 h 33 v 145 145 h -35 -35 v -69 c 0,-39 -4,-72 -8,-75 -5,-3 -35,28 -67,69 -52,67 -62,75 -92,75 h -34 z"
       id="path40" />
    <path
       d="m 1406.0381,4366.1066 c -3,-8 -4,-23 -2,-33 3,-17 21,-18 277,-18 245,0 275,2 284,17 8,12 7,21 -2,32 -12,14 -49,16 -283,16 -225,0 -270,-2 -274,-14 z"
       id="path41" />
    <path
       d="m 2231.0381,4364.1066 c -9,-11 -10,-20 -2,-32 9,-15 39,-17 273,-17 234,0 264,2 273,17 8,12 7,21 -2,32 -12,14 -48,16 -271,16 -223,0 -259,-2 -271,-16 z"
       id="path42" />
    <path
       d="m 4154.6374,4360.2693 c -9,-11 -10,-20 -2,-32 9,-15 39,-17 273,-17 234,0 264,2 273,17 8,12 7,21 -2,32 -12,14 -48,16 -271,16 -223,0 -259,-2 -271,-16 z"
       id="path42-3" />
    <path
       d="m 4866.0381,4366.1066 c -3,-8 -4,-23 -2,-33 3,-17 23,-18 295,-21 l 293,-2 6,24 c 3,14 3,30 -1,35 -4,7 -103,11 -296,11 -243,0 -291,-2 -295,-14 z"
       id="path44" />
  </g>
  <path
     style="fill:#f2f3eb;fill-opacity:1;stroke-width:1.11547"
     d="M 454.98159,394.41912 C 433.48644,385.06735 414.21587,373.0424 398.07663,358.91011 386.44149,348.72182 366.14258,327.6061 352.20458,311.19222 l -10.44304,-12.29811 -0.64917,25.95284 c -0.67846,27.12423 -0.96347,28.83781 -6.65382,40.00468 -3.43464,6.74019 -11.27331,19.05524 -11.79611,18.53244 -0.23505,-0.23507 0.59534,-3.39601 1.84531,-7.02434 1.24999,-3.62833 3.03459,-9.60873 3.9658,-13.28978 0.9312,-3.68104 1.95146,-7.57124 2.26724,-8.64488 0.3189,-1.08424 -0.0137,-1.95207 -0.74826,-1.95207 -0.72731,0 -9.16899,5.24742 -18.75926,11.66093 -15.18987,10.15825 -49.21708,29.60539 -51.80917,29.60984 -0.49954,7.5e-4 2.03016,-3.63766 5.62156,-8.08558 18.02819,-22.32781 35.25297,-46.0271 34.68693,-47.7252 -0.22447,-0.67344 -8.42842,4.64436 -18.23098,11.81732 -27.05357,19.79626 -63.52577,43.8404 -64.70781,42.65836 -0.25421,-0.25421 27.10801,-27.98932 60.80494,-61.63357 l 61.26714,-61.17137 7.58291,6.75741 c 9.03532,8.05172 43.53487,42.96924 79.05819,80.016 36.07542,37.62252 39.99955,41.83974 38.85403,41.75589 -0.55737,-0.0408 -4.77811,-1.71205 -9.37942,-3.71391 z"
     id="path45" />
  <path
     style="fill:#f2f3eb;fill-opacity:1;stroke-width:1.11547"
     d="m 131.53385,384.15146 c 15.06864,-15.44057 59.12436,-54.01271 61.62943,-53.95845 1.87218,0.0406 28.12767,18.58704 28.12767,19.86897 0,0.56947 -2.48814,3.09148 -5.52919,5.60446 -5.42117,4.47979 -5.58463,4.53249 -8.36602,2.69679 -1.56025,-1.02976 -4.96862,-3.06937 -7.57417,-4.53247 l -4.73737,-2.66019 -20.21024,12.44246 c -19.05681,11.73236 -46.28691,26.78589 -48.45257,26.78589 -0.54148,0 1.75913,-2.81135 5.11246,-6.24746 z"
     id="path46" />
  <path
     style="fill:#f2f3eb;fill-opacity:1;stroke-width:1.11547"
     d="m 518.00555,369.04578 c -7.36209,-3.72455 -17.65229,-9.30699 -22.8671,-12.40542 -5.21481,-3.09843 -9.74579,-5.7659 -10.06883,-5.9277 -0.32305,-0.16179 -4.05687,1.89198 -8.29738,4.56396 -8.57986,5.4062 -8.48952,5.4138 -16.11783,-1.35573 l -4.86642,-4.31857 14.7681,-9.71935 c 8.12244,-5.34563 15.15833,-9.71934 15.63529,-9.71934 1.20075,0 14.69223,12.3227 31.05113,28.36114 12.94932,12.69564 17.04933,17.42562 15.02451,17.333 -0.48171,-0.0221 -6.89937,-3.08743 -14.26147,-6.81199 z"
     id="path47" />
</svg>
